<?xml version="1.0" encoding="utf-8"?>
<!-- Designed by Vexels.com - 2016 All Rights Reserved - https://vexels.com/terms-and-conditions/  -->

<svg version="1.1" id="Layer_1" xmlns="http://www.w3.org/2000/svg" xmlns:xlink="http://www.w3.org/1999/xlink" x="0px" y="0px"
	 width="1200px" height="1200px" viewBox="0 0 1200 1200" enable-background="new 0 0 1200 1200" xml:space="preserve">
<g>
	<path fill="#8CC1D2" d="M1084.096,565.622C1084.096,280.855,853.254,50,568.489,50C283.722,50,52.881,280.855,52.881,565.622
		c0,284.759,230.842,515.614,515.608,515.614C853.254,1081.236,1084.096,850.381,1084.096,565.622z"/>
	<g>
		<defs>
			<path id="SVGID_1_" d="M1084.096,565.622C1084.096,280.855,853.254,50,568.489,50C283.722,50,52.881,280.855,52.881,565.622
				c0,284.759,230.842,515.614,515.608,515.614C853.254,1081.236,1084.096,850.381,1084.096,565.622z"/>
		</defs>
		<clipPath id="SVGID_2_">
			<use xlink:href="#SVGID_1_"  overflow="visible"/>
		</clipPath>
		<path opacity="0.2" clip-path="url(#SVGID_2_)" fill="#211915" d="M225.09,760.328L433.525,1150l497.972-88.542
			c0,0,214.056-140.557,215.616-145.243c1.56-4.687-266.948-541.9-266.948-541.9L731.76,305.587l-25.202-42.641l-131.802,79.479
			l-103.03,171.921L273.085,576.99L225.09,760.328z"/>
	</g>
	<g>
		<path fill-rule="evenodd" clip-rule="evenodd" fill="#804D2F" d="M695.765,260.044c93.531,0,227.708,100.115,229.12,276.792
			c1.419,176.684-63.017,288.181-216.311,292.453c-153.302,4.265-223.429-131.422-223.429-295.298
			C485.145,370.121,602.234,260.044,695.765,260.044z"/>
		<path fill-rule="evenodd" clip-rule="evenodd" fill="#603A24" d="M401.619,460.786c107.407-25.779,227.715,6.829,267.665,157.538
			c39.964,150.723-31.16,219.36-149.971,246.256c-118.817,26.91-279.673-30.078-303.716-136.249
			C191.561,622.16,294.226,486.557,401.619,460.786z"/>
		<g>
			<defs>
				<path id="SVGID_3_" d="M401.619,460.786c107.407-25.779,227.715,6.829,267.665,157.538
					c39.964,150.723-31.16,219.36-149.971,246.256c-118.817,26.91-279.673-30.078-303.716-136.249
					C191.561,622.16,294.226,486.557,401.619,460.786z"/>
			</defs>
			<clipPath id="SVGID_4_">
				<use xlink:href="#SVGID_3_"  overflow="visible"/>
			</clipPath>
			<g clip-path="url(#SVGID_4_)">
				<path fill-rule="evenodd" clip-rule="evenodd" fill="#401F13" d="M625.919,481.506l-184.385-37.772
					c-88.332,19.982-170.762,93.545-117.258,180.478c18.816,30.599,10.195,92.463,37.379,149.845
					c32.032,67.598,116.359,96.348,181.891,87.777c19.49-2.558,79.507-13.799,88.507-25.336
					c44.047-56.447,52.161-20.235,72.425-106.866c8.277-35.369,18.352-90.756,10.223-126.68L625.919,481.506z"/>
			</g>
		</g>
		<path fill-rule="evenodd" clip-rule="evenodd" fill="#F4F3EF" d="M482.426,828.241c57.459,12.963,127.516-13.735,155.55-65.04
			c32.179-58.899,19.349-176.207-29.144-224.539c-53.559-53.391-123.377-73.184-197.003-47.763
			c-36.241,12.514-64.872,32.637-72.186,71.209c-6.528,34.378,16.497,53.454,21.942,80.111
			c9.716,47.693,10.434,92.371,38.699,134.718C418.461,804.17,451.708,821.307,482.426,828.241z"/>
		<path fill-rule="evenodd" clip-rule="evenodd" fill="#BDB7B9" d="M500.413,533.948c-43.794-24.689-132.392,40.351-102.96,116.71
			c11.607,30.058,49.33,121.86,90.404,126.905c103.782,12.759,151.651-31.99,119.429-163.209
			C593.262,557.253,533.695,552.714,500.413,533.948z"/>
	</g>
</g>
</svg>
